<svg width="1300" height="1300" xmlns="http://www.w3.org/2000/svg">

    <g>

        <rect width="100%"
              height="100%"
              fill="none"
              stroke="none"
              stroke-width="0"
        />

        <g id="logo"
           fill="#FFF">

            <path id="0"
                  d="
                    M 150 850
                    c -35 -50, -35 -350, 0 -700
                    c 35 350, 35 650, 0 700
                  "
            />

            <path id="1"
                  d="
                    M 250 850
                    c -35 -50, -35 -350, 0 -400
                    c 35 50, 35 350, 0 400
                  "
            />

            <path id="2"
                  d="
                    M 350 850
                    c -35 -50, -35 -350, 0 -400
                    c 35 50, 35 350, 0 400
                  "
            />

            <path id="3"
                  d="
                    M 450 850
                    c -35 -50, -35 -350, 0 -400
                    c 35 50, 35 350, 0 400
                  "
            />

            <path id="4"
                  d="
                    M 550 850
                    c -35 -50, -35 -350, 0 -400
                    c 35 50, 35 350, 0 400
                  "
            />

            <path id="5"
                  d="
                    M 650 850
                    c -35 -50, -40 -400, 0 -550
                    c 35 150, 40 500, 0 550
                  "
            />

            <path id="6"
                  d="
                    M 750 850
                    c -35 -50, -35 -350, 0 -400
                    c 35 50, 35 350, 0 400
                  "
            />

            <path id="7"
                  d="
                    M 850 850
                    c -35 -50, -35 -350, 0 -400
                    c 35 50, 35 350, 0 400
                  "
            />

            <path id="8"
                  d="
                    M 950 850
                    c -35 -50, -35 -350, 0 -400
                    c 35 50, 35 350, 0 400
                  "
            />

            <path id="9"
                  d="
                    M 1050 850
                    c -35 -50, -35 -350, 0 -400
                    c 35 50, 35 350, 0 400
                  "
            />

            <path id="10"
                  d="
                    M 1150 850
                    c -35 -50, -35 -350, 0 -700
                    c 35 350, 35 650, 0 700
                  "
            />

        </g>

        <g id="text"
           fill="none"
           stroke="#FFF"
           stroke-width="25"
           stroke-linecap="round"
           stroke-linejoin="round"
           transform="scale(1.275), translate(-40, -250)"
        >

            <path id="T"
                  d="
                    M 300 1000
                    v 125
                    m -50 -115
                    v -10
                    h 100
                    v 10
                  "
            />

            <path id="e"
                  d="
                    M 400 1000
                    m 100 10
                    v -10
                    h -100
                    v 125
                    h 100
                    v -10
                    m -100 -52.5
                    h 75
                  "
            />

            <path id="r"
                  d="
                    M 550 1000
                    v 125
                    m 0 -75
                    a 50 50, 0, 0, 1, 100 0
                    a 50 50, 0, 0, 1, -100 0
                    m 75 50
                    l 25 25
                   "
            />

            <path id="z"
                  d="
                    M 700 1000
                    m 0 10
                    v -10
                    h 100
                    l -100 125
                    h 100
                    v -10
                  "
            />

            <path id="i"
                  d="
                    M 850 1000
                    h 20
                    m -10 0
                    v 125
                    m -10 0
                    h 20
                  "
            />

        </g>

    </g>

</svg>
